#!OML:ASF F:\VICON\USERDATA\INSTALL\rory3\rory3.ASF
:FULLY-SPECIFIED
:DEGREES
966
root 0.735543 10.2832 -0.636518 -15.7051 58.1334 7.18518
lowerback 42.8631 0.885339 -1.45944
upperback 13.3628 2.40181 5.75854
thorax -5.67802 1.46073 5.88759
lowerneck -11.0929 -10.9746 -10.9387
upperneck -22.1525 -11.4906 15.009
head -3.20768 -5.32701 6.29089
rclavicle -5.725e-014 4.45278e-014
rhumerus 61.2231 6.98033 -57.0683
rradius 143.275
rwrist -48.1434
rhand -17.8152 11.5843
rfingers 7.12502
rthumb 8.44864 -18.2267
lclavicle -5.725e-014 4.45278e-014
lhumerus 45.9594 -64.5611 -7.82449
lradius 78.1626
lwrist 2.46808
lhand -52.4914 21.8166
lfingers 7.12502
lthumb -24.9785 50.2039
rfemur -116.536 -52.0378 31.4578
rtibia 146.306
rfoot -3.17958 3.60444
rtoes -35.9304
lfemur -74.3816 29.3881 -16.5113
ltibia 93.8741
lfoot 10.1615 -9.21687
ltoes 18.3025
967
root 0.755995 10.2634 -0.628826 -15.6919 58.1261 7.14998
lowerback 42.8154 0.857075 -1.45557
upperback 13.4161 2.38071 5.84945
thorax -5.60988 1.44776 5.99376
lowerneck -11.2312 -11.0074 -11.0676
upperneck -21.9573 -11.5385 14.9557
head -3.11991 -5.33689 6.27495
rclavicle 1.05753e-013 -1.03368e-013
rhumerus 61.3502 6.92239 -57.1346
rradius 143.251
rwrist -48.3338
rhand -17.3819 11.5332
rfingers 7.12502
rthumb 8.86682 -18.2605
lclavicle 1.05753e-013 -1.03368e-013
lhumerus 45.6656 -64.5734 -7.49946
lradius 78.1193
lwrist 2.33506
lhand -52.5109 22.5463
lfingers 7.12502
lthumb -24.9971 50.9309
rfemur -116.94 -52.1319 31.5445
rtibia 146.499
rfoot -3.13709 3.74612
rtoes -35.7295
lfemur -74.4951 29.571 -17.3177
ltibia 93.5783
lfoot 8.95897 -10.1263
ltoes 10.8511
968
root 0.754841 10.2672 -0.626627 -15.7197 58.0926 7.11024
lowerback 42.8035 0.86075 -1.47298
upperback 13.4614 2.39087 5.94841
thorax -5.56527 1.44899 6.10647
lowerneck -11.1813 -10.9954 -11.2254
upperneck -21.9486 -11.5248 14.9223
head -3.12034 -5.31987 6.29257
rclavicle -5.80451e-014 -3.18055e-015
rhumerus 61.4621 6.89691 -57.1709
rradius 143.204
rwrist -48.3975
rhand -17.3449 11.2412
rfingers 7.12502
rthumb 8.90252 -18.5509
lclavicle -5.80451e-014 -3.18055e-015
lhumerus 45.4404 -64.6315 -7.19957
lradius 78.0064
lwrist 2.12413
lhand -52.7317 22.9972
lfingers 7.12502
lthumb -25.2088 51.3522
rfemur -116.849 -52.0593 31.5574
rtibia 146.477
rfoot -3.15637 3.69335
rtoes -35.6145
lfemur -74.3962 29.5881 -17.1267
ltibia 93.5144
lfoot 9.27384 -9.91811
ltoes 12.9809
969
root 0.756587 10.2694 -0.623332 -15.4113 58.1611 7.47966
lowerback 42.819 0.897221 -1.66484
upperback 13.4774 2.36116 5.95886
thorax -5.55514 1.43013 6.22984
lowerneck -11.0174 -10.9874 -11.2541
upperneck -22.0478 -11.5324 14.8741
head -3.17677 -5.32599 6.29521
rclavicle 2.78299e-014 4.29375e-014
rhumerus 61.5388 6.8327 -57.2459
rradius 143.176
rwrist -48.4495
rhand -17.4172 11.0148
rfingers 7.12502
rthumb 8.83279 -18.7803
lclavicle 2.78299e-014 4.29375e-014
lhumerus 45.4167 -64.7381 -7.16679
lradius 77.931
lwrist 2.02575
lhand -52.7302 23.0659
lfingers 7.12502
lthumb -25.2072 51.4211
rfemur -117.058 -52.504 31.5984
rtibia 146.525
rfoot -3.39732 3.91028
rtoes -35.6658
lfemur -74.4274 29.6106 -17.5081
ltibia 93.4447
lfoot 9.0151 -10.1365
ltoes 10.8549
970
root 0.756432 10.2732 -0.623173 -15.1198 58.2279 7.77501
lowerback 42.8115 0.917885 -1.77875
upperback 13.4816 2.34139 5.95793
thorax -5.54941 1.41825 6.29637
lowerneck -10.8781 -10.9917 -11.1613
upperneck -22.1755 -11.572 14.7263
head -3.2511 -5.35103 6.24669
rclavicle 5.80451e-014 -3.33958e-014
rhumerus 61.5318 6.71636 -57.3411
rradius 143.157
rwrist -48.5613
rhand -17.3317 11.3002
rfingers 7.12502
rthumb 8.91528 -18.4914
lclavicle 5.80451e-014 -3.33958e-014
lhumerus 45.4688 -64.8011 -7.2634
lradius 77.9955
lwrist 2.12147
lhand -52.2822 22.9204
lfingers 7.12502
lthumb -24.778 51.3354
rfemur -117.252 -52.7822 31.6271
rtibia 146.538
rfoot -3.55034 4.01615
rtoes -35.7184
lfemur -74.3219 29.5336 -17.5406
ltibia 93.4091
lfoot 9.23733 -9.82368
ltoes 13.1228
971
root 0.757431 10.2762 -0.621845 -15.0467 58.226 7.8157
lowerback 42.8081 0.911344 -1.79697
upperback 13.5021 2.33033 5.98624
thorax -5.52696 1.41153 6.34137
lowerneck -10.8586 -10.9834 -11.0039
upperneck -22.2404 -11.594 14.5415
head -3.298 -5.36634 6.1688
rclavicle -1.90833e-014 -6.36111e-014
rhumerus 61.5452 6.66863 -57.4348
rradius 143.116
rwrist -48.5158
rhand -17.1696 11.645
rfingers 7.12502
rthumb 9.07168 -18.1399
lclavicle -1.90833e-014 -6.36111e-014
lhumerus 45.333 -64.8366 -7.20813
lradius 78.0794
lwrist 2.24951
lhand -52.0589 23.0341
lfingers 7.12502
lthumb -24.564 51.4783
rfemur -117.276 -52.8186 31.6509
rtibia 146.527
rfoot -3.59674 3.9914
rtoes -35.6203
lfemur -74.3996 29.5782 -17.6582
ltibia 93.3944
lfoot 9.07328 -9.93197
ltoes 12.0604
972
root 0.758264 10.2785 -0.617541 -14.8334 58.2669 8.08511
lowerback 42.8488 0.929756 -1.94998
upperback 13.521 2.29251 5.97647
thorax -5.51638 1.39022 6.42579
lowerneck -10.9881 -10.9964 -10.9731
upperneck -22.1151 -11.6151 14.5072
head -3.2433 -5.3749 6.13923
rclavicle -4.45278e-014 4.77083e-015
rhumerus 61.5942 6.66004 -57.521
rradius 143.159
rwrist -48.4905
rhand -17.1961 11.2705
rfingers 7.12502
rthumb 9.04614 -18.5156
lclavicle -4.45278e-014 4.77083e-015
lhumerus 45.1607 -64.8987 -7.1302
lradius 78.0994
lwrist 2.34717
lhand -52.2797 23.2929
lfingers 7.12502
lthumb -24.7756 51.7082
rfemur -117.367 -53.027 31.5956
rtibia 146.536
rfoot -3.66791 4.1017
rtoes -35.4395
lfemur -74.3915 29.6044 -17.8767
ltibia 93.3725
lfoot 8.92047 -10.0606
ltoes 11.1597
973
root 0.759019 10.2803 -0.613818 -14.7111 58.2767 8.22063
lowerback 42.8791 0.922868 -2.02667
upperback 13.522 2.25283 5.96662
thorax -5.52032 1.36953 6.47102
lowerneck -11.0984 -10.9814 -11.1031
upperneck -21.9408 -11.5788 14.58
head -3.16362 -5.34829 6.16955
rclavicle -5.1684e-014 1.59028e-014
rhumerus 61.6425 6.67483 -57.6554
rradius 143.22
rwrist -48.6308
rhand -17.2989 10.77
rfingers 7.12502
rthumb 8.94691 -19.0203
lclavicle -5.1684e-014 1.59028e-014
lhumerus 44.9935 -64.9843 -7.04354
lradius 78.0807
lwrist 2.42486
lhand -52.4834 23.3373
lfingers 7.12502
lthumb -24.9708 51.7256
rfemur -117.433 -53.0867 31.5753
rtibia 146.541
rfoot -3.6736 4.18175
rtoes -35.2282
lfemur -74.3569 29.6194 -17.9647
ltibia 93.4042
lfoot 8.8277 -10.1009
ltoes 11.033
974
root 0.761147 10.2819 -0.610824 -14.7324 58.2492 8.1404
lowerback 42.8449 0.875023 -2.03267
upperback 13.5452 2.19484 5.99537
thorax -5.4803 1.33951 6.52978
lowerneck -11.0126 -10.8935 -11.1049
upperneck -21.9701 -11.4744 14.5335
head -3.20141 -5.29799 6.16811
rclavicle -5.08889e-014 2.38542e-014
rhumerus 61.7689 6.75082 -57.8147
rradius 143.223
rwrist -48.7965
rhand -17.3455 10.6912
rfingers 7.12502
rthumb 8.90194 -19.101
lclavicle -5.08889e-014 2.38542e-014
lhumerus 44.5464 -65.0592 -6.67178
lradius 78.0476
lwrist 2.41178
lhand -52.5201 23.1359
lfingers 7.12502
lthumb -25.0059 51.5193
rfemur -117.432 -53.0585 31.6568
rtibia 146.546
rfoot -3.69436 4.20157
rtoes -35.1475
lfemur -74.3833 29.6748 -17.9532
ltibia 93.4037
lfoot 8.85212 -10.2055
ltoes 10.498
975
root 0.735034 10.3132 -0.617338 -14.6772 58.2329 8.14259
lowerback 42.7624 0.870731 -2.07485
upperback 13.5898 2.17915 6.05803
thorax -5.41165 1.32771 6.62768
lowerneck -10.9032 -10.8685 -11.0177
upperneck -22.027 -11.482 14.3539
head -3.25594 -5.30537 6.10766
rclavicle -1.59028e-015 1.90833e-014
rhumerus 61.8704 6.75285 -57.9
rradius 143.285
rwrist -49.0254
rhand -17.3067 10.4308
rfingers 7.12502
rthumb 8.93936 -19.3598
lclavicle -1.59028e-015 1.90833e-014
lhumerus 44.2125 -65.0916 -6.31663
lradius 78.0281
lwrist 2.37294
lhand -52.5412 23.1933
lfingers 7.12502
lthumb -25.0261 51.5739
rfemur -116.849 -52.5273 31.4196
rtibia 146.254
rfoot -3.52705 3.86661
rtoes -35.1782
lfemur -74.3539 29.5264 -16.8901
ltibia 93.74
lfoot 10.4685 -8.94174
ltoes 21.0015
976
root 0.759789 10.2886 -0.604131 -14.69 58.1994 8.08468
lowerback 42.7344 0.89007 -2.03197
upperback 13.615 2.22811 6.12722
thorax -5.38572 1.34999 6.66104
lowerneck -10.9098 -10.9292 -11.0034
upperneck -21.9815 -11.5893 14.2237
head -3.24202 -5.3555 6.05664
rclavicle -3.97569e-015 1.27222e-014
rhumerus 61.8694 6.66092 -57.9308
rradius 143.354
rwrist -49.2159
rhand -17.0415 10.2429
rfingers 7.12502
rthumb 9.19534 -19.5366
lclavicle -3.97569e-015 1.27222e-014
lhumerus 44.2541 -65.101 -6.28453
lradius 78.0476
lwrist 2.34404
lhand -52.545 23.6642
lfingers 7.12502
lthumb -25.0298 52.0442
rfemur -117.271 -52.5325 31.4408
rtibia 146.51
rfoot -3.3702 3.97348
rtoes -34.9943
lfemur -74.4779 29.8376 -17.887
ltibia 93.3883
lfoot 9.03657 -10.1491
ltoes 11.8792
977
root 0.758452 10.291 -0.601738 -14.7044 58.1805 8.04361
lowerback 42.7599 0.901231 -1.99634
upperback 13.6223 2.26154 6.16539
thorax -5.39072 1.36611 6.67001
lowerneck -10.9453 -10.9757 -11.0853
upperneck -21.9219 -11.6488 14.2273
head -3.2069 -5.37904 6.06208
rclavicle -2.62396e-014 9.54166e-015
rhumerus 61.8553 6.58104 -57.9689
rradius 143.37
rwrist -49.2404
rhand -16.7817 10.3199
rfingers 7.12502
rthumb 9.44602 -19.4484
lclavicle -2.62396e-014 9.54166e-015
lhumerus 44.2554 -65.1182 -6.27008
lradius 78.0854
lwrist 2.32832
lhand -52.5126 23.7513
lfingers 7.12502
lthumb -24.9988 52.1357
rfemur -117.202 -52.398 31.4127
rtibia 146.503
rfoot -3.25779 3.87933
rtoes -34.668
lfemur -74.473 29.8612 -17.8741
ltibia 93.357
lfoot 8.93538 -10.1196
ltoes 11.978
978
root 0.758676 10.2927 -0.599167 -14.5629 58.2081 8.17809
lowerback 42.7542 0.9154 -2.0702
upperback 13.6465 2.25342 6.18926
thorax -5.36498 1.35958 6.73818
lowerneck -11.0002 -11.0283 -11.2232
upperneck -21.8692 -11.7075 14.2512
head -3.16601 -5.39818 6.08179
rclavicle 1.82882e-014 -3.65764e-014
rhumerus 61.908 6.53572 -58.0236
rradius 143.323
rwrist -49.2082
rhand -16.3668 10.5646
rfingers 7.12502
rthumb 9.84625 -19.1852
lclavicle 1.82882e-014 -3.65764e-014
lhumerus 44.0801 -65.1257 -6.09173
lradius 78.1069
lwrist 2.37237
lhand -52.5542 23.5745
lfingers 7.12502
lthumb -25.0386 51.9533
rfemur -117.242 -52.496 31.4056
rtibia 146.509
rfoot -3.313 3.92855
rtoes -34.488
lfemur -74.4783 29.8425 -17.9935
ltibia 93.2729
lfoot 8.91842 -10.1675
ltoes 11.4206
